#!OML:ASF X:\für Bonn\!DataBase\2005_08_12_Daniel\c3d\Daniel.ASF
:FULLY-SPECIFIED
:DEGREES
16
root 25.9007 17.9172 1.20071 -110.102 88.2462 -481.501
lowerback 28.119 -2.4112 4.03351
upperback 11.035 -1.00987 -0.551663
thorax -3.25659 0.0519986 -2.64072
lowerneck 5.63945 1.57119 -6.89158
upperneck 7.55658 2.02159 -0.689693
head 1.35542 0.89896 0.924531
rclavicle 9.93923e-016 1.20265e-014
rhumerus -113.436 -20.6595 50.9907
rradius 11.4744
rwrist 158.439
rhand -3.83235 12.0627
rfingers 7.12502
rthumb 21.9149 -16.7161
lclavicle 9.93923e-016 1.20265e-014
lhumerus -102.378 25.181 -33.2
lradius 13.3688
lwrist -124.025
lhand -5.57479 -11.0502
lfingers 7.12502
lthumb 20.2411 17.9151
rfemur -38.0747 -0.160677 23.3724
rtibia 42.9673
rfoot -3.37793 -8.45153
rtoes -6.89316
lfemur -41.6739 -1.65881 -16.4834
ltibia 50.6572
lfoot -5.66535 -0.64245
ltoes -11.7538
17
root 25.9749 17.9884 1.21217 -110.144 88.0901 -481.662
lowerback 27.5227 -2.37941 4.03257
upperback 11.0356 -1.00947 -0.462235
thorax -2.97712 0.048363 -2.54353
lowerneck 5.83396 1.62874 -6.93904
upperneck 7.89411 2.09819 -0.603892
head 1.42759 0.933072 0.960192
rclavicle -4.87022e-015 -2.08724e-015
rhumerus -110.862 -20.7507 48.013
rradius 11.0175
rwrist 154.441
rhand -4.29185 12.2036
rfingers 7.12502
rthumb 21.4737 -16.6262
lclavicle -4.87022e-015 -2.08724e-015
lhumerus -100.121 23.8083 -29.1709
lradius 13.1505
lwrist -118.304
lhand -6.05036 -11.4025
lfingers 7.12502
lthumb 19.7839 17.6107
rfemur -37.2409 -0.419181 23.4739
rtibia 41.6978
rfoot -2.62936 -8.08744
rtoes -6.20908
lfemur -41.037 -1.70009 -16.2084
ltibia 49.7981
lfoot -5.17821 -0.88463
ltoes -11.5616
18
root 26.0499 18.0497 1.22307 -109.493 87.9361 -481.11
lowerback 26.9675 -2.34809 4.04981
upperback 11.0834 -0.998364 -0.385724
thorax -2.66234 0.0548531 -2.47446
lowerneck 5.61944 1.66441 -6.99793
upperneck 8.3743 2.17826 -0.481641
head 1.61422 0.962319 1.01644
rclavicle 2.88238e-015 -6.55989e-015
rhumerus -108.26 -20.9825 44.4005
rradius 10.5458
rwrist 149.697
rhand -4.92368 12.5591
rfingers 7.12502
rthumb 20.8667 -16.3387
lclavicle 2.88238e-015 -6.55989e-015
lhumerus -98.2813 22.476 -25.4113
lradius 12.9527
lwrist -112.584
lhand -6.62879 -11.5236
lfingers 7.12502
lthumb 19.2278 17.5459
rfemur -36.4656 -0.670428 23.585
rtibia 40.5945
rfoot -1.98259 -7.6859
rtoes -5.7716
lfemur -40.4404 -1.78254 -15.9132
ltibia 49.0616
lfoot -4.79819 -1.14929
ltoes -11.5637
19
root 26.1244 18.0997 1.23362 -108.636 87.788 -480.347
lowerback 26.5127 -2.31524 4.06321
upperback 11.1158 -0.98211 -0.333987
thorax -2.4107 0.0633392 -2.43169
lowerneck 5.06275 1.67345 -6.90318
upperneck 9.01097 2.26223 -0.410975
head 1.91284 0.991275 1.03736
rclavicle 1.98785e-016 -1.19271e-015
rhumerus -105.756 -21.1483 40.4991
rradius 10.1356
rwrist 144.8
rhand -5.73239 12.9487
rfingers 7.12502
rthumb 20.0896 -16.0327
lclavicle 1.98785e-016 -1.19271e-015
lhumerus -97.0256 21.1293 -22.6652
lradius 12.8201
lwrist -107.795
lhand -7.30268 -11.5678
lfingers 7.12502
lthumb 18.5797 17.5649
rfemur -35.7811 -0.894712 23.6892
rtibia 39.6777
rfoot -1.39884 -7.22479
rtoes -5.36005
lfemur -39.9145 -1.9238 -15.6045
ltibia 48.4729
lfoot -4.54369 -1.3682
ltoes -11.6427
20
root 26.1975 18.1377 1.24338 -107.456 87.6462 -479.238
lowerback 26.1814 -2.28497 4.0405
upperback 11.1456 -0.967371 -0.257309
thorax -2.21907 0.0693458 -2.34039
lowerneck 4.25633 1.67999 -6.85398
upperneck 9.73615 2.36463 -0.381261
head 2.28846 1.0239 1.05915
rclavicle 1.0138e-014 2.3059e-014
rhumerus -105.177 -19.9374 41.8963
rradius 9.7032
rwrist 145.029
rhand -7.38886 13.5176
rfingers 7.12502
rthumb 18.4968 -15.623
lclavicle 1.0138e-014 2.3059e-014
lhumerus -96.4293 19.8228 -20.9552
lradius 12.7984
lwrist -104.253
lhand -7.9508 -11.6365
lfingers 7.12502
lthumb 17.9562 17.5546
rfemur -35.1737 -1.13791 23.8078
rtibia 38.9736
rfoot -0.850239 -6.62937
rtoes -5.10785
lfemur -39.4324 -2.10084 -15.2791
ltibia 48.0396
lfoot -4.41901 -1.55202
ltoes -11.6962
21
root 26.2719 18.1679 1.25281 -105.865 87.5174 -477.705
lowerback 25.8878 -2.2343 4.00893
upperback 11.1766 -0.926684 -0.193848
thorax -2.04181 0.0882513 -2.26544
lowerneck 3.3428 1.66624 -6.7674
upperneck 10.4939 2.44271 -0.29028
head 2.70188 1.04562 1.09809
rclavicle -1.47101e-014 -1.67973e-014
rhumerus -104.773 -18.8752 43.3603
rradius 9.38107
rwrist 145.432
rhand -8.87609 13.9725
rfingers 7.12502
rthumb 17.0657 -15.2979
lclavicle -1.47101e-014 -1.67973e-014
lhumerus -95.7707 18.5293 -18.8976
lradius 12.8122
lwrist -100.719
lhand -8.45947 -11.674
lfingers 7.12502
lthumb 17.4667 17.5612
rfemur -34.6438 -1.35348 23.9232
rtibia 38.4939
rfoot -0.429574 -5.93841
rtoes -5.20284
lfemur -39.003 -2.34372 -14.9427
ltibia 47.7646
lfoot -4.43834 -1.68853
ltoes -11.8161
22
root 26.3439 18.1894 1.26082 -104.066 87.3683 -475.977
lowerback 25.5915 -2.18832 4.00934
upperback 11.2058 -0.885017 -0.127685
thorax -1.86529 0.108328 -2.20596
lowerneck 2.60368 1.66926 -6.63399
upperneck 11.0655 2.52364 -0.262575
head 3.02862 1.07423 1.10454
rclavicle -1.21259e-014 -3.85642e-014
rhumerus -104.613 -18.2428 44.9352
rradius 9.38555
rwrist 146.078
rhand -9.90894 14.2311
rfingers 7.12502
rthumb 16.0713 -15.1225
lclavicle -1.21259e-014 -3.85642e-014
lhumerus -95.2954 17.2168 -16.9538
lradius 12.8732
lwrist -97.6572
lhand -8.93373 -11.7969
lfingers 7.12502
lthumb 17.0102 17.4783
rfemur -34.2369 -1.53038 24.0586
rtibia 38.2354
rfoot -0.128667 -5.20005
rtoes -5.48817
lfemur -38.6715 -2.59724 -14.5813
ltibia 47.6408
lfoot -4.58439 -1.81276
ltoes -11.9105
